<?xml version="1.0" encoding="UTF-8" standalone="no"?>
<svg width="476px" height="44px" viewBox="0 0 510 44" version="1.1" xmlns="http://www.w3.org/2000/svg" xmlns:xlink="http://www.w3.org/1999/xlink">
    <!-- Generator: sketchtool 41.2 (35397) - http://www.bohemiancoding.com/sketch -->
    <title>37D4D004-9BAB-4146-9D8B-B1BA2174F3FC</title>
    <desc>Created with sketchtool.</desc>
    <defs></defs>
    <g id="Symbols" stroke="none" stroke-width="1" fill="none" fill-rule="evenodd">
        <g id="d---Header-v1---Pre-registration---gov.bc" transform="translate(-130.000000, -9.000000)">
            <g id="Canada-BC-Job-Grant-logo-Copy-2">
                <g transform="translate(130.000000, 9.000000)">
                    <text id="Canada-BC-Job-Grant" font-family="Garamond" font-size="39.1065902" font-weight="normal" letter-spacing="-1.562701" fill="#FFFFFF">
                        <tspan x="169.51008" y="34">Canada-BC Job Grant</tspan>
                    </text>
                    <path d="M156.793728,1.68765309 L156.793728,33.8260195" id="Line" stroke="#FCB813" stroke-width="0.558665574" stroke-linecap="square"></path>
                    <g id="BC-Logo">
                        <path d="M142.105625,29.8370931 L140.102653,29.8370931 C140.049943,29.8370931 139.470135,29.890184 139.470135,29.7309112 C139.470135,29.6778203 139.522845,29.5716385 139.522845,29.5185476 L140.73517,26.5454565 C140.78788,26.4392746 140.8933,26.0676382 141.051429,26.0676382 C141.156849,26.0676382 141.314978,26.4923655 141.314978,26.5454565 L142.474594,29.3061839 C142.474594,29.3592748 142.580014,29.6247294 142.580014,29.6778203 C142.632723,29.890184 142.211045,29.8370931 142.105625,29.8370931 L142.105625,29.8370931 Z M146.585958,33.6596388 L146.533249,33.6065479 C146.427829,33.6065479 146.375119,33.6065479 146.322409,33.553457 C145.637182,33.3941842 145.426343,32.5978205 145.162794,32.0138205 L141.789367,23.9440017 C141.736657,23.8378199 141.683947,23.6254562 141.578527,23.6254562 C141.420398,23.6254562 141.367688,23.8378199 141.314978,23.9970926 L138.09968,32.0669114 C137.994261,32.3854569 137.678002,33.1287297 137.467163,33.3410933 C137.309033,33.500366 137.098194,33.553457 136.834645,33.553457 C136.834645,33.553457 136.676516,33.553457 136.571096,33.6065479 L136.149418,33.6596388 C136.043998,33.7658206 136.096708,33.9781843 136.202128,34.0312752 L136.834645,34.0312752 C137.256324,34.0312752 137.730712,33.9781843 138.15239,33.9781843 C138.521359,33.9781843 138.890327,34.0312752 139.259296,34.0312752 L139.891814,34.0312752 C139.997233,33.9781843 140.049943,33.7658206 139.944523,33.6596388 L139.522845,33.6065479 L139.312006,33.6065479 C138.943037,33.553457 138.415939,33.500366 138.415939,33.0756387 C138.415939,32.8101842 138.574069,32.4385478 138.626778,32.1730932 L139.153876,30.9520022 C139.417425,30.3680022 139.312006,30.3149113 139.997233,30.3149113 L142.263755,30.3149113 C143.054402,30.3149113 142.948982,30.3149113 143.317951,31.111275 L143.845049,32.332366 C143.950468,32.5447296 144.055888,32.916366 144.055888,33.1287297 C144.055888,33.553457 143.63421,33.553457 143.212531,33.6065479 L142.948982,33.6065479 L142.527304,33.6596388 C142.421884,33.7658206 142.474594,33.9781843 142.580014,34.0312752 L143.212531,34.0312752 C143.686919,34.0312752 144.161308,33.9781843 144.635696,33.9781843 C145.215504,33.9781843 145.795311,34.0312752 146.375119,34.0312752 L146.638668,34.0312752 C146.638668,33.9781843 146.691378,33.7127297 146.585958,33.6596388 L146.585958,33.6596388 Z M119.124152,33.6065479 L118.860603,33.6065479 C118.702473,33.6065479 118.544344,33.553457 118.386215,33.4472751 C118.175375,33.2349115 118.175375,32.5447296 118.175375,32.332366 L118.175375,25.5367291 C118.175375,25.2181836 118.122666,24.6341836 118.333505,24.368729 C118.438924,24.2625472 118.649764,24.2094563 118.860603,24.2094563 L119.071442,24.2094563 L119.49312,24.1563654 C119.59854,24.1032745 119.54583,23.8378199 119.440411,23.784729 L117.01576,23.784729 C116.804921,23.784729 116.646791,23.784729 116.541372,23.9970926 L112.904395,31.695275 L109.689097,24.2625472 C109.583678,23.9970926 109.583678,23.784729 109.214709,23.784729 L106.737348,23.784729 C106.631929,23.8378199 106.579219,24.1032745 106.684639,24.1563654 L107.106317,24.2094563 L107.369866,24.2094563 C108.055093,24.2625472 108.107803,24.4218199 108.055093,25.1650927 L107.527995,32.3854569 C107.475286,33.1287297 107.422576,33.500366 106.684639,33.553457 C106.684639,33.553457 106.526509,33.553457 106.42109,33.6065479 L105.999411,33.6596388 C105.893992,33.7658206 105.946701,33.9781843 106.052121,34.0312752 L106.684639,34.0312752 C107.053607,34.0312752 107.475286,33.9781843 107.844254,33.9781843 C108.265933,33.9781843 108.687611,34.0312752 109.109289,34.0312752 L109.741807,34.0312752 C109.847227,33.9781843 109.899937,33.7658206 109.794517,33.6596388 L109.372838,33.6065479 L109.161999,33.6065479 C108.055093,33.553457 108.107803,32.7570933 108.160513,31.8014568 L108.687611,25.1120018 L108.793031,25.1120018 L112.271878,33.3410933 C112.324587,33.4472751 112.377297,33.6596388 112.535427,33.6596388 C112.693556,33.6596388 112.746266,33.500366 112.798976,33.3410933 L116.752211,24.8996382 L116.85763,24.8996382 L116.85763,32.2792751 C116.85763,32.5978205 116.91034,33.1818206 116.594081,33.3941842 C116.435952,33.500366 115.908854,33.6065479 115.908854,33.6065479 C115.856144,33.6065479 115.750724,33.6065479 115.698015,33.6596388 L115.276336,33.7127297 C115.170917,33.8189115 115.223626,34.0312752 115.329046,34.0843661 L115.961564,34.0843661 C116.541372,34.0843661 117.121179,34.0312752 117.700987,34.0312752 C118.122666,34.0312752 118.913313,34.0843661 118.913313,34.0843661 C119.124152,34.0843661 119.334991,34.137457 119.54583,34.137457 C119.65125,34.0843661 119.70396,33.8720024 119.59854,33.7658206 L119.124152,33.6065479 L119.124152,33.6065479 Z M132.248892,26.1738201 C132.248892,24.5280018 132.196183,24.2625472 131.247406,24.2094563 L130.825728,24.1563654 C130.720308,24.1032745 130.773018,23.8378199 130.878438,23.784729 C131.721794,23.8378199 132.248892,23.8378199 132.93412,23.8378199 C133.566637,23.8378199 134.146445,23.8378199 134.989802,23.784729 C135.095222,23.8378199 135.147932,24.1032745 135.042512,24.1563654 L134.620833,24.2094563 C133.672057,24.2625472 133.619347,24.5280018 133.619347,26.1738201 L133.619347,31.6421841 C133.619347,33.2880024 133.672057,33.500366 134.620833,33.6065479 L135.042512,33.6596388 C135.147932,33.7127297 135.095222,33.9781843 134.989802,34.0312752 C134.146445,33.9781843 133.619347,33.9781843 132.93412,33.9781843 C132.248892,33.9781843 131.669085,33.9781843 130.878438,34.0312752 C130.773018,33.9781843 130.773018,33.7658206 130.825728,33.6596388 L131.247406,33.6065479 C132.196183,33.500366 132.248892,33.2880024 132.248892,31.6421841 L132.248892,26.1738201 L132.248892,26.1738201 Z M87.3928512,26.1738201 C87.3928512,24.5810927 87.3401414,24.3156381 86.2859453,24.2625472 L85.8642669,24.2094563 C85.7588473,24.1563654 85.8115571,23.8909108 85.9169767,23.8378199 C86.8657532,23.8909108 87.445561,23.8909108 88.0780786,23.8909108 C88.7105962,23.8909108 89.290404,23.8909108 90.1337609,23.8378199 C90.2391805,23.8909108 90.2918903,24.1563654 90.1864707,24.2094563 L89.7647923,24.2625472 C88.763306,24.3156381 88.763306,24.5810927 88.763306,26.1738201 L88.763306,31.5360023 C88.763306,32.4916387 88.8160158,32.916366 89.1322746,33.1818206 C89.290404,33.3410933 89.6593727,33.553457 90.9771177,33.553457 C92.4002823,33.553457 92.769251,33.500366 93.0328,33.3410933 C93.3490588,33.1818206 93.823447,32.5978205 94.1397058,31.8014568 C94.2451254,31.7483659 94.5613842,31.8014568 94.5613842,31.9076387 C94.5613842,32.0669114 94.086996,33.6596388 93.8761568,34.0312752 C93.0328,33.9781843 91.4515059,33.9781843 89.7120825,33.9781843 L88.1834982,33.9781843 C87.4982708,33.9781843 86.918463,33.9781843 86.0223963,34.0312752 C85.9169767,33.9781843 85.8642669,33.7658206 85.9696865,33.6596388 L86.4967846,33.6065479 C87.445561,33.500366 87.4982708,33.2880024 87.4982708,31.695275 L87.4982708,26.1738201 L87.3928512,26.1738201 Z M87.0238826,14.2283647 C86.7076238,14.2283647 86.1278159,14.3345465 86.1278159,13.9098192 L86.1278159,10.989819 C86.1278159,9.82181889 86.1805257,9.66254615 87.5509806,9.66254615 C89.1322746,9.66254615 90.1337609,10.4589098 90.1337609,11.9985463 C90.1337609,12.6356373 89.9229217,13.2727282 89.290404,13.6974555 C88.6051766,14.1752737 87.8672394,14.2283647 87.0238826,14.2283647 L87.0238826,14.2283647 Z M93.1909294,19.2720014 L92.769251,19.2189105 C92.6638314,19.2189105 92.6111215,19.2189105 92.5584117,19.1658196 C91.9258941,19.0596377 91.7150549,18.4756377 91.3987961,17.9978195 L89.9229217,15.4494557 C89.6593727,15.0247284 89.3958236,14.4407283 88.8160158,14.3876374 C90.2918903,14.2283647 91.6623451,13.3258191 91.6623451,11.8392736 C91.6623451,10.0872735 89.9756315,9.34400067 88.236208,9.34400067 C87.182012,9.34400067 86.2859453,9.39709159 85.2317493,9.39709159 C84.6519415,9.39709159 83.9667141,9.34400067 83.3869063,9.34400067 C83.0706474,9.34400067 83.0706474,9.39709159 83.0706474,9.60945524 C83.0706474,9.8749098 83.176067,9.82181889 83.5450357,9.82181889 C84.7573611,9.8749098 84.7046513,10.1403644 84.7046513,11.1490917 L84.7046513,17.8916377 C84.7046513,18.8472741 84.8100709,19.1658196 83.8085847,19.2189105 L83.5450357,19.2189105 L83.1233572,19.2720014 C83.0179376,19.3781832 83.0706474,19.5905469 83.176067,19.6436378 L83.8085847,19.6436378 C84.3883925,19.6436378 84.9154905,19.5905469 85.4952983,19.5905469 C86.0751061,19.5905469 86.6022042,19.6436378 87.1293022,19.6436378 L87.7618198,19.6436378 C87.8672394,19.5905469 87.9199492,19.3781832 87.8145296,19.2720014 L87.3928512,19.2189105 L87.1293022,19.2189105 C86.1278159,19.1658196 86.1805257,18.8472741 86.1805257,17.8916377 L86.1805257,15.3432738 C86.1805257,15.1840011 86.1805257,14.8123647 86.2859453,14.7061829 C86.391365,14.6000011 86.5494944,14.6000011 86.7076238,14.6000011 C88.0780786,14.6000011 88.0780786,14.7061829 88.7105962,15.874183 L90.5027295,19.0596377 C90.6608589,19.3250923 90.7662785,19.6436378 91.1352471,19.6436378 L93.296349,19.6436378 C93.2436392,19.5905469 93.296349,19.3250923 93.1909294,19.2720014 L93.1909294,19.2720014 Z M123.709905,31.4298204 C123.709905,32.0138205 123.762614,32.7570933 124.078873,33.1287297 C124.395132,33.500366 124.97494,33.553457 125.502038,33.553457 C127.083332,33.553457 128.295657,32.916366 128.295657,31.3767295 C128.295657,30.1556385 127.55772,28.7221839 124.764101,28.7221839 C123.815324,28.7221839 123.709905,28.8283657 123.709905,29.1469112 L123.709905,31.4298204 Z M123.709905,27.8196384 C123.709905,28.2443657 123.709905,28.2974566 124.658681,28.2443657 C126.503524,28.1912748 127.4523,27.7134565 127.4523,26.2800019 C127.4523,24.7403654 126.134555,24.2094563 124.81681,24.2094563 C124.447842,24.2094563 124.131583,24.2625472 123.973454,24.3156381 C123.815324,24.368729 123.709905,24.4218199 123.709905,24.7403654 L123.709905,27.8196384 Z M122.28674,25.7490928 C122.28674,24.5810927 122.23403,24.3156381 121.390673,24.2625472 L120.810865,24.2094563 C120.758156,24.1563654 120.705446,23.8378199 120.810865,23.8378199 C121.759642,23.784729 122.971967,23.7316381 124.658681,23.7316381 C125.765587,23.7316381 126.872493,23.784729 127.66314,24.1563654 C128.453787,24.4749109 129.033595,25.1120018 129.033595,26.0676382 C129.033595,27.1825474 128.295657,27.7665475 127.188751,28.1912748 C127.188751,28.3505475 127.346881,28.4036384 127.50501,28.4036384 C128.453787,28.5629111 129.876951,29.3592748 129.876951,31.0050931 C129.876951,32.8101842 128.348367,34.0312752 125.133069,34.0312752 C124.605971,34.0312752 123.762614,33.9781843 122.971967,33.9781843 C122.18132,33.9781843 121.601512,34.0312752 120.916285,34.0312752 C120.810865,33.9781843 120.758156,33.7127297 120.863575,33.6596388 L121.179834,33.6065479 C122.12861,33.4472751 122.18132,33.2880024 122.18132,31.695275 L122.18132,25.7490928 L122.28674,25.7490928 Z M103.52205,27.6603656 C103.52205,26.7047292 103.469341,24.9527291 103.205792,24.4749109 C103.100372,24.3156381 102.784113,24.2094563 102.415145,24.1563654 L101.993466,24.1032745 C101.888047,23.9970926 101.940756,23.784729 102.046176,23.7316381 C102.678694,23.784729 103.258501,23.784729 103.891019,23.784729 C104.576247,23.784729 104.997925,23.784729 105.577733,23.7316381 C105.683152,23.784729 105.683152,23.9970926 105.630443,24.1032745 L105.261474,24.1563654 C104.839796,24.2094563 104.576247,24.3156381 104.470827,24.5280018 C104.259988,25.0589109 104.259988,26.810911 104.259988,27.6603656 L104.259988,29.4123658 C104.259988,30.7396386 104.049149,32.1730932 103.153082,33.0756387 C102.467854,33.8189115 101.255529,34.1905479 100.095913,34.1905479 C98.9890076,34.1905479 97.8821017,33.9781843 97.0914547,33.3410933 C96.2480979,32.6509114 95.8264195,31.5360023 95.8264195,29.7309112 L95.8264195,26.1207292 C95.8264195,24.5280018 95.7737097,24.2625472 94.877643,24.2094563 L94.4559646,24.1563654 C94.350545,24.1032745 94.4032548,23.8378199 94.5086744,23.784729 C95.2993214,23.8378199 95.8791293,23.8378199 96.5116469,23.8378199 C97.1968743,23.8378199 97.7239723,23.8378199 98.5146193,23.784729 C98.6200389,23.8378199 98.6200389,24.1032745 98.5673291,24.1563654 L98.1983605,24.2094563 C97.2495841,24.2625472 97.2495841,24.5280018 97.2495841,26.1207292 L97.2495841,29.4123658 C97.2495841,31.9076387 98.0402311,33.500366 100.517592,33.500366 C102.836823,33.500366 103.73289,31.7483659 103.73289,29.4123658 L103.73289,27.6603656 L103.52205,27.6603656 Z M83.8612945,29.3061839 C83.8612945,26.7578201 82.7016788,24.0501835 79.6445103,24.0501835 C77.9577967,24.0501835 75.7966948,25.1650927 75.7966948,28.5098202 C75.7966948,30.7927295 76.9563105,33.7127297 80.1188986,33.7127297 C82.0691612,33.7127297 83.8612945,32.332366 83.8612945,29.3061839 L83.8612945,29.3061839 Z M74.2154008,28.9876384 C74.2154008,25.9083655 76.6400516,23.5723653 79.9080593,23.5723653 C83.5977455,23.5723653 85.4425885,26.1207292 85.4425885,28.8283657 C85.4425885,31.9076387 82.9652278,34.1905479 79.9080593,34.1905479 C76.3765026,34.1905479 74.2154008,31.7483659 74.2154008,28.9876384 L74.2154008,28.9876384 Z M64.1478286,22.9883653 C65.5182835,21.926547 67.2049971,21.3956379 69.1552598,21.3956379 C70.156746,21.3956379 71.5799107,21.6080016 72.4232675,21.8203652 C72.6341067,21.8734561 72.7922361,21.926547 72.9503655,21.8734561 C72.9503655,22.2981834 73.0557851,23.4661835 73.2139145,24.5810927 C73.1084949,24.6872745 72.8449459,24.7403654 72.7395263,24.6341836 C72.4759773,23.3600017 71.6326205,21.926547 68.9444206,21.926547 C66.0980913,21.926547 63.7261502,23.7316381 63.7261502,27.5541838 C63.7261502,31.4298204 66.2035109,33.6065479 69.2079696,33.6065479 C71.5799107,33.6065479 72.6341067,32.0669114 73.0557851,30.9520022 C73.1612047,30.8458204 73.4774635,30.8989113 73.5301733,31.0050931 C73.4247537,31.9607296 72.8976557,33.1818206 72.6341067,33.553457 L72.0015891,33.7127297 C71.5799107,33.8720024 70.2621656,34.137457 69.10255,34.137457 C67.4158363,34.137457 65.8345423,33.8189115 64.5167973,32.916366 C63.0409228,31.9076387 61.8813072,30.2087294 61.8813072,27.8196384 C61.8285974,25.8552746 62.724664,24.1032745 64.1478286,22.9883653 L64.1478286,22.9883653 Z M128.559206,14.653092 C127.768559,14.653092 127.715849,14.7061829 127.715849,15.1309102 L127.715849,17.3076376 C127.715849,18.900365 127.821269,19.1127286 128.717336,19.2189105 L129.191724,19.2720014 C129.297144,19.3250923 129.244434,19.5905469 129.139014,19.6436378 C128.242947,19.5905469 127.715849,19.5905469 127.083332,19.5905469 C126.398104,19.5905469 125.818297,19.6436378 125.185779,19.6436378 C125.080359,19.5905469 125.080359,19.3781832 125.133069,19.2720014 L125.396618,19.2189105 C126.292685,19.0596377 126.345395,18.900365 126.345395,17.3076376 L126.345395,11.7861827 C126.345395,10.1934553 126.239975,9.92800071 125.396618,9.8749098 L124.97494,9.82181889 C124.86952,9.76872798 124.92223,9.50327341 125.02765,9.4501825 C125.818297,9.4501825 126.398104,9.50327341 127.083332,9.50327341 C127.715849,9.50327341 128.295657,9.50327341 128.980885,9.4501825 C129.086304,9.50327341 129.086304,9.76872798 129.033595,9.82181889 L128.717336,9.8749098 C127.768559,9.98109163 127.715849,10.1934553 127.715849,11.7861827 L127.715849,13.5381828 C127.715849,14.016001 127.768559,14.016001 128.559206,14.016001 L133.250379,14.016001 C134.041026,14.016001 134.093735,14.016001 134.093735,13.5381828 L134.093735,11.7861827 C134.093735,10.1934553 134.041026,9.92800071 133.092249,9.8749098 L132.77599,9.82181889 C132.670571,9.76872798 132.723281,9.50327341 132.8287,9.4501825 C133.566637,9.50327341 134.146445,9.50327341 134.831673,9.50327341 C135.46419,9.50327341 136.043998,9.50327341 136.781935,9.4501825 C136.887355,9.50327341 136.940065,9.76872798 136.834645,9.82181889 L136.465677,9.8749098 C135.5169,9.98109163 135.46419,10.1934553 135.46419,11.7861827 L135.46419,17.3076376 C135.46419,18.900365 135.5169,19.1127286 136.465677,19.2189105 L136.834645,19.2720014 C136.940065,19.3250923 136.887355,19.5905469 136.781935,19.6436378 C135.991288,19.5905469 135.411481,19.5905469 134.778963,19.5905469 C134.093735,19.5905469 133.513928,19.5905469 132.77599,19.6436378 C132.670571,19.5905469 132.617861,19.3781832 132.723281,19.2720014 L133.039539,19.2189105 C134.041026,19.0596377 134.041026,18.900365 134.041026,17.3076376 L134.041026,15.1309102 C134.041026,14.653092 133.988316,14.653092 133.197669,14.653092 L128.559206,14.653092 L128.559206,14.653092 Z M119.54583,19.8029105 C118.017246,19.8029105 117.06847,19.3781832 116.752211,19.2189105 C116.541372,18.900365 116.277823,17.7854558 116.277823,17.095274 C116.383242,16.9890921 116.646791,16.9360012 116.699501,17.042183 C116.96305,17.8385467 117.700987,19.3250923 119.809379,19.3250923 C121.337963,19.3250923 122.075901,18.4756377 122.075901,17.5730922 C122.075901,16.8829103 121.917771,16.1396375 120.600026,15.4494557 L118.913313,14.4938192 C118.017246,13.9629101 116.96305,13.1134555 116.96305,11.8392736 C116.96305,10.4058189 118.280795,9.18472793 120.652736,9.18472793 C121.232544,9.18472793 121.865061,9.29090976 122.33945,9.39709159 C122.550289,9.4501825 122.813838,9.50327341 122.971967,9.50327341 C123.130097,9.8749098 123.288226,10.7243644 123.288226,11.3614554 C123.235516,11.4676372 122.919258,11.5207281 122.813838,11.4145463 C122.602999,10.6712735 122.075901,9.66254615 120.389187,9.66254615 C118.649764,9.66254615 118.228085,10.6712735 118.228085,11.3614554 C118.228085,12.2640009 119.071442,12.9010918 119.756669,13.2727282 L121.179834,14.016001 C122.28674,14.6000011 123.446356,15.5025466 123.446356,16.9360012 C123.340936,18.6349104 121.865061,19.8029105 119.54583,19.8029105 L119.54583,19.8029105 Z M111.955619,11.7861827 C111.955619,10.1403644 111.902909,9.8749098 110.901423,9.82181889 L110.479744,9.76872798 C110.374325,9.71563706 110.427035,9.4501825 110.532454,9.39709159 C111.375811,9.4501825 111.955619,9.4501825 112.640846,9.4501825 C113.326074,9.4501825 113.905881,9.4501825 114.749238,9.39709159 C114.854658,9.4501825 114.907368,9.71563706 114.801948,9.76872798 L114.38027,9.82181889 C113.378783,9.8749098 113.326074,10.1403644 113.326074,11.7861827 L113.326074,17.2545467 C113.326074,18.900365 113.378783,19.1127286 114.38027,19.2189105 L114.801948,19.2720014 C114.907368,19.3250923 114.854658,19.5905469 114.749238,19.6436378 C113.905881,19.5905469 113.326074,19.5905469 112.640846,19.5905469 C111.955619,19.5905469 111.375811,19.5905469 110.532454,19.6436378 C110.427035,19.5905469 110.374325,19.3781832 110.479744,19.2720014 L110.901423,19.2189105 C111.902909,19.1127286 111.955619,18.900365 111.955619,17.2545467 L111.955619,11.7861827 Z M105.156054,17.3076376 C105.156054,18.900365 105.208764,19.1658196 106.104831,19.2189105 L106.631929,19.2720014 C106.737348,19.3250923 106.684639,19.5905469 106.579219,19.6436378 C105.683152,19.5905469 105.156054,19.5905469 104.523537,19.5905469 C103.891019,19.5905469 103.311211,19.5905469 102.309725,19.6436378 C102.204305,19.5905469 102.204305,19.3250923 102.309725,19.2720014 L102.889533,19.2189105 C103.7856,19.1658196 103.891019,18.900365 103.891019,17.3076376 L103.891019,10.4589098 C103.891019,9.98109163 103.891019,9.98109163 103.416631,9.98109163 L102.520564,9.98109163 C101.835337,9.98109163 100.99198,10.0341825 100.570302,10.352728 C100.201333,10.6712735 100.043204,11.0429099 99.8323644,11.4145463 C99.7269448,11.5207281 99.4633958,11.4145463 99.410686,11.3083645 C99.674235,10.6181826 99.8850742,9.66254615 99.9904938,9.0254552 C100.043204,8.97236428 100.254043,8.97236428 100.306753,9.0254552 C100.412172,9.50327341 100.93927,9.50327341 101.677207,9.50327341 L108.107803,9.50327341 C108.95116,9.50327341 109.109289,9.4501825 109.320129,9.07854611 C109.372838,9.0254552 109.583678,9.07854611 109.583678,9.13163702 C109.425548,9.76872798 109.320129,10.989819 109.320129,11.4676372 C109.267419,11.573819 109.00387,11.573819 108.89845,11.5207281 C108.84574,11.1490917 108.740321,10.5650917 108.476772,10.4058189 C108.107803,10.1403644 107.527995,10.0341825 106.631929,10.0341825 L105.525023,10.0341825 C105.050635,10.0341825 105.050635,10.0341825 105.050635,10.5650917 L105.050635,17.3076376 L105.156054,17.3076376 Z M95.7737097,11.7861827 C95.7737097,10.1403644 95.7209998,9.8749098 94.7195136,9.82181889 L94.350545,9.82181889 C94.2451254,9.76872798 94.2978352,9.50327341 94.4032548,9.4501825 C95.2466116,9.50327341 95.8264195,9.50327341 96.5116469,9.50327341 C97.1968743,9.50327341 97.7766821,9.50327341 98.6200389,9.4501825 C98.7254585,9.50327341 98.7781683,9.76872798 98.6727487,9.82181889 L98.2510703,9.8749098 C97.2495841,9.92800071 97.1968743,10.1934553 97.1968743,11.8392736 L97.1968743,17.2545467 C97.1968743,18.900365 97.2495841,19.1127286 98.2510703,19.2189105 L98.6727487,19.2720014 C98.7781683,19.3250923 98.7254585,19.5905469 98.6200389,19.6436378 C97.7766821,19.5905469 97.1968743,19.5905469 96.5116469,19.5905469 C95.8264195,19.5905469 95.2466116,19.5905469 94.4032548,19.6436378 C94.2978352,19.5905469 94.2451254,19.3781832 94.350545,19.2720014 L94.7722234,19.2189105 C95.7737097,19.1127286 95.8264195,18.900365 95.8264195,17.2545467 L95.8264195,11.7861827 L95.7737097,11.7861827 Z M75.1641772,16.5643648 C75.1641772,17.2014558 75.216887,18.1040013 75.5858556,18.5287286 C75.9548242,18.9534559 76.534632,19.0065468 77.1671497,19.0065468 C78.9065731,19.0065468 80.277028,18.263274 80.277028,16.5112739 C80.277028,15.0778193 79.4863809,13.432001 76.3237928,13.432001 C75.2695968,13.432001 75.1641772,13.5381828 75.1641772,13.9098192 L75.1641772,16.5643648 Z M75.1641772,12.4232736 C75.1641772,12.9010918 75.1641772,12.9541828 76.2183732,12.9010918 C78.2213457,12.8480009 79.3282515,12.2640009 79.3282515,10.6181826 C79.3282515,8.86618246 77.9050869,8.17600059 76.3765026,8.17600059 C75.9548242,8.17600059 75.6385654,8.2290915 75.480436,8.28218241 C75.2695968,8.33527333 75.216887,8.44145515 75.216887,8.76000063 L75.216887,12.4232736 L75.1641772,12.4232736 Z M73.5301733,10.0341825 C73.5301733,8.70690972 73.4247537,8.33527333 72.5286871,8.28218241 L71.8961695,8.2290915 C71.7907499,8.12290968 71.8434597,7.8043642 71.8961695,7.8043642 C72.9503655,7.69818237 74.3208204,7.64509146 76.1656634,7.64509146 C77.4306987,7.64509146 78.5903143,7.75127329 79.4863809,8.12290968 C80.3297378,8.49454607 81.0149652,9.23781885 81.0149652,10.352728 C81.0149652,11.6269099 80.1716084,12.3170918 79.0119927,12.79491 C79.0119927,12.9541828 79.1701221,13.0072737 79.3809613,13.0603646 C80.4351574,13.2196373 82.0164514,14.1221828 82.0164514,16.0334557 C82.0164514,18.1040013 80.3297378,19.537456 76.7454712,19.537456 C76.1656634,19.537456 75.216887,19.484365 74.3735302,19.484365 C73.4774635,19.484365 72.8449459,19.537456 72.1070087,19.537456 C72.0015891,19.484365 71.9488793,19.2189105 72.0542989,19.1127286 L72.4232675,19.0596377 C73.4774635,18.900365 73.5301733,18.6880013 73.5301733,16.8298194 L73.5301733,10.0341825 Z" id="Fill-1" fill="#FFFFFF"></path>
                        <path d="M8.32814867,33.3410933 C17.7632032,33.3410933 30.7298144,38.7032755 40.2175787,38.7032755 C46.9644333,38.7032755 53.5531585,36.8981845 57.2955544,34.2436388 C57.5591034,32.6509114 57.7172328,31.0581841 57.7172328,29.4123658 C57.7172328,13.4850919 44.908751,0.584000042 29.0958105,0.584000042 C13.1774504,0.584000042 0.368968612,13.4850919 0.368968612,29.4123658 C0.368968612,31.0581841 0.527098017,32.6509114 0.737937224,34.1905479 C1.79213326,33.9781843 5.32368997,33.3410933 8.32814867,33.3410933" id="Fill-3" fill="#FFFFFF"></path>
                        <polygon id="Fill-5" fill="#FCB813" points="47.4915313 22.7229107 48.6511469 23.2007289 51.1285076 21.4487288"></polygon>
                        <path d="M5.32368997,20.7585469 L2.37194108,19.6967287 L2.53007048,19.3250923 L5.90349779,20.4400015 L6.3251762,20.1745469 L6.48330561,20.0683651 L2.84632929,18.5287286 L3.0044587,18.1570922 L11.174478,21.5018197 L11.438027,21.3956379 L3.32071751,17.3607285 L3.47884691,16.9890921 L12.0705446,21.0240015 L12.1759642,20.9709106 L3.84781552,16.2458194 L4.00594493,15.874183 L16.0237797,22.4574562 C16.1291993,22.2981834 16.3400385,21.926547 16.4454581,21.7672743 C11.8597054,17.4669103 7.48479184,14.1752737 7.48479184,14.1752737 C7.48479184,14.1752737 12.0178348,17.2545467 17.6050738,20.0683651 C17.815913,19.8560014 17.9213326,19.6436378 18.1321718,19.4312741 L7.90647025,10.352728 L8.17001926,10.0872735 L16.4454581,17.2014558 L8.80253688,9.4501825 L9.06608589,9.13163702 L17.6577836,17.5200013 L9.64589371,8.54763698 L9.96215252,8.28218241 L17.3415248,16.2458194 L10.5946701,7.69818237 L10.9109289,7.43272781 L19.5553364,18.0509104 C19.7661756,17.8385467 19.9770148,17.7323649 20.187854,17.5200013 C17.6050738,11.8392736 14.7060347,7.16727324 14.7060347,7.16727324 C14.7060347,7.16727324 17.7632032,11.6800008 21.8745677,16.4050921 C22.1381167,16.2458194 22.4016657,16.1396375 22.6652147,15.9803648 L22.6125049,15.9272739 L16.5508777,3.7163639 L16.8671365,3.61018208 L21.8745677,13.3258191 L17.6577836,3.2916366 L18.0267522,3.13236386 L22.8760539,14.1221828 L18.8173992,2.81381838 L19.1863678,2.65454565 L23.0868931,12.8480009 L20.0297246,2.33600017 L20.3986932,2.17672743 L24.457348,15.1840011 L24.457348,15.237092 C24.720897,15.1309102 24.984446,15.0778193 25.3007048,14.9716374 C24.9317362,8.76000063 24.0356696,3.39781843 24.0356696,3.39781843 C24.0356696,3.39781843 25.1952852,8.70690972 27.1982577,14.6000011 C27.4618067,14.5469101 27.7780655,14.5469101 28.0416145,14.4938192 L28.0943243,14.4938192 L28.0943243,14.4407283 L26.9874185,0.90254552 L27.3563871,0.90254552 L28.4105831,11.7861827 L28.2524537,0.849454607 L28.6741321,0.849454607 L29.0958105,12.9010918 L29.5174889,0.849454607 L29.9391674,0.849454607 L29.7810379,11.7861827 L30.835234,0.90254552 L31.2042026,0.90254552 L30.0972968,14.4938192 L30.0972968,14.5469101 C30.3608458,14.5469101 30.6771046,14.6000011 30.9406536,14.653092 C32.9963359,8.76000063 34.1032417,3.45090934 34.1032417,3.45090934 C34.1032417,3.45090934 33.2071751,8.76000063 32.8909162,15.0247284 C33.1544653,15.0778193 33.4180143,15.1840011 33.7342731,15.2901829 L37.740218,2.33600017 L38.1091866,2.38909108 L35.0520181,12.9010918 L38.9525434,2.70763656 L39.3215121,2.8669093 L35.2101475,14.1752737 L40.0594493,3.13236386 L40.4284179,3.2916366 L36.2116338,13.3258191 L41.2190649,3.61018208 L41.5880335,3.76945482 L35.5264063,15.9803648 C35.7899553,16.0865466 36.0007945,16.2458194 36.2643436,16.3520012 C40.3757081,11.6800008 43.3801668,7.16727324 43.3801668,7.16727324 C43.3801668,7.16727324 40.5865473,11.7861827 37.9510572,17.4669103 C38.1618964,17.6261831 38.4254454,17.8385467 38.6362846,17.9978195 L47.1752725,7.48581872 L47.4915313,7.75127329 L40.7446767,16.3520012 L48.1240489,8.38836424 L48.4403077,8.6538188 L40.4284179,17.6261831 L49.0201156,9.23781885 L49.2836646,9.55636432 L41.6407433,17.2545467 L49.9161822,10.1403644 L50.1797312,10.4058189 L40.0594493,19.4312741 C40.2175787,19.6436378 40.4284179,19.8560014 40.5865473,20.0683651 C46.1210765,17.2545467 50.6541194,14.2283647 50.6541194,14.2283647 C50.6541194,14.2283647 46.2792059,17.4669103 41.7461629,21.7141834 C41.8515825,21.926547 42.0624217,22.2981834 42.1678413,22.5105471 L53.9748369,16.0334557 L54.1329663,16.4050921 L44.7506216,21.7141834 L54.5546447,17.095274 L54.7127741,17.4669103 L45.5412687,21.9796379 L45.6993981,22.0327289 L55.029033,18.263274 L55.1871624,18.6349104 L46.5427549,22.3512743 L46.7008843,22.4043652 L52.4462527,20.4930924 L53.2896095,19.8560014 L53.5531585,20.0683651 L55.4507114,19.4312741 L55.6088408,19.8029105 L53.9748369,20.3869106 L56.346778,22.1920016 L57.0847152,22.6167289 C54.1329663,9.82181889 42.6949394,0.265454565 28.9903909,0.265454565 C15.0750033,0.265454565 3.42613711,10.1403644 0.63251762,23.3600017 C0.685227422,23.3600017 0.685227422,23.3069108 0.737937223,23.3069108 L1.10690584,23.147638 L1.31774504,23.0414562 L5.32368997,20.7585469" id="Fill-7" fill="#FCB813"></path>
                        <path d="M8.32814867,33.9250934 C17.7632032,33.9250934 30.7298144,39.2872756 40.2175787,39.2872756 C47.1225627,39.2872756 53.9221271,37.3760027 57.5591034,34.5621843 C57.8226524,32.916366 57.9807818,31.2174568 57.9807818,29.4654567 C57.9807818,27.1294565 57.7172328,24.8465472 57.1901348,22.6698198 L53.2368997,20.4400015 L48.5984371,23.6785472 L45.4885588,22.4574562 C44.4343628,22.9883653 37.9510572,27.3418201 37.9510572,27.3418201 L35.4736965,25.5367291 L32.7854966,25.00582 L29.2012301,22.4043652 L25.0898656,25.2181836 C25.0898656,25.2181836 20.5041129,27.8727293 20.3459834,27.8727293 C20.187854,27.8727293 14.8641641,23.6254562 14.8641641,23.6254562 L12.3868034,21.0240015 C11.965125,21.2894561 10.2784113,22.0858198 10.2784113,22.0858198 L8.53898787,21.5549106 L6.58872521,20.4930924 L0.737937224,23.3069108 C0.685227422,23.3069108 0.685227422,23.3600017 0.63251762,23.3600017 C0.210839207,25.3243655 0,27.3949111 0,29.4654567 C0,31.2705477 0.158129405,33.0756387 0.474388215,34.774548 C0.474388215,34.774548 4.74388215,33.9250934 8.32814867,33.9250934 Z" id="Fill-9" fill="#65799E"></path>
                    </g>
                </g>
            </g>
        </g>
    </g>
</svg>