<?xml version="1.0" encoding="utf-8"?>
<!-- Generator: Adobe Illustrator 19.0.0, SVG Export Plug-In . SVG Version: 6.00 Build 0)  -->
<svg version="1.1" id="Isolation_Mode" xmlns="http://www.w3.org/2000/svg" xmlns:xlink="http://www.w3.org/1999/xlink" x="0px"
	 y="0px" width="20px" height="20px" viewBox="-485 491 20 20" style="enable-background:new -485 491 20 20;" xml:space="preserve"
	>
<path d="M-474,501c-0.1-0.1-0.2-0.2-0.3-0.3c-1.1-1.1-2.2-2.2-3.3-3.3c-0.3-0.4-0.4-0.9,0-1.2c0.3-0.3,0.8-0.3,1.2,0.1
	c1.4,1.4,2.7,2.7,4.1,4.1c0.4,0.4,0.4,0.8,0,1.2c-1.4,1.4-2.7,2.7-4.1,4.1c-0.4,0.4-0.8,0.4-1.2,0.1c-0.4-0.3-0.3-0.8,0.1-1.2
	c1.1-1.1,2.2-2.2,3.3-3.3C-474.2,501.2-474.1,501.1-474,501z"/>
</svg>
