<?xml version="1.0" encoding="utf-8"?>
<!-- Generated by IcoMoon.io -->
<!DOCTYPE svg PUBLIC "-//W3C//DTD SVG 1.1//EN" "http://www.w3.org/Graphics/SVG/1.1/DTD/svg11.dtd">
<svg version="1.1" xmlns="http://www.w3.org/2000/svg" xmlns:xlink="http://www.w3.org/1999/xlink" width="16" height="16" viewBox="0 0 16 16">
<path fill="#364153" d="M15 7c-0.553 0-1 0.448-1 1v6h-12v-6c0-0.552-0.447-1-1-1s-1 0.448-1 1v7c0 0.552 0.447 1 1 1h14c0.553 0 1-0.448 1-1v-7c0-0.552-0.447-1-1-1zM9 7v-6.122c0-0.485-0.447-0.878-1-0.878s-1 0.393-1 0.878v6.122h-3l4 4 4-4h-3z"></path>
</svg>
