<?xml version="1.0" encoding="UTF-8" standalone="no"?>
<svg width="12px" height="12px" viewBox="0 0 12 12" version="1.1" xmlns="http://www.w3.org/2000/svg" xmlns:xlink="http://www.w3.org/1999/xlink">
    <!-- Generator: Sketch 41 (35326) - http://www.bohemiancoding.com/sketch -->
    <title>Page 1 Copy 7</title>
    <desc>Created with Sketch.</desc>
    <defs></defs>
    <g id="Ryota's-resources" stroke="none" stroke-width="1" fill="none" fill-rule="evenodd">
        <g id="Int---Work-queues-2b-Copy-2" transform="translate(-387.000000, -144.000000)" fill="#252525">
            <g id="Page-1-Copy-7" transform="translate(387.000000, 144.000000)">
                <path d="M6.0000514,7.80465156 C5.00333233,7.80465156 4.19534844,6.99666767 4.19534844,5.9999486 C4.19534844,5.00333233 5.00333233,4.19534844 6.0000514,4.19534844 C6.99666767,4.19534844 7.80465156,5.00333233 7.80465156,5.9999486 C7.80465156,6.99666767 6.99666767,7.80465156 6.0000514,7.80465156 L6.0000514,7.80465156 Z M12,6.87947916 L12,5.12052084 L10.3987322,4.8736026 C10.2907954,4.45110721 10.1231336,4.05276909 9.90612927,3.6871204 L10.8645051,2.37923502 L9.62076498,1.13549492 L8.3129824,2.09387073 C7.94723091,1.87686641 7.54889279,1.70920461 7.12650019,1.60137063 L6.87947916,0 L5.12052084,0 L4.8736026,1.60137063 C4.45121001,1.70920461 4.05287189,1.87686641 3.6871204,2.09387073 L2.37933782,1.13549492 L1.13549492,2.37923502 L2.09387073,3.6871204 C1.8769692,4.05276909 1.70920461,4.45110721 1.60137063,4.8736026 L0,5.12052084 L0,6.87947916 L1.60137063,7.1263974 C1.70920461,7.54889279 1.8769692,7.94723091 2.09387073,8.3128796 L1.13549492,9.62076498 L2.37933782,10.8645051 L3.6871204,9.90602647 C4.05287189,10.1231336 4.45121001,10.2907954 4.8736026,10.3986294 L5.12052084,12 L6.87947916,12 L7.12650019,10.3986294 C7.54889279,10.2907954 7.94723091,10.1231336 8.3129824,9.90602647 L9.62076498,10.8645051 L10.8645051,9.62076498 L9.90612927,8.3128796 C10.1231336,7.94723091 10.2907954,7.54889279 10.3987322,7.1263974 L12,6.87947916 Z" id="Fill-1"></path>
            </g>
        </g>
    </g>
</svg>