<?xml version="1.0" encoding="UTF-8" standalone="no"?>
<svg width="12px" height="12px" viewBox="0 0 12 12" version="1.1" xmlns="http://www.w3.org/2000/svg" xmlns:xlink="http://www.w3.org/1999/xlink">
    <!-- Generator: Sketch 41 (35326) - http://www.bohemiancoding.com/sketch -->
    <title>Fill 4</title>
    <desc>Created with Sketch.</desc>
    <defs></defs>
    <g id="Template-aggregate" stroke="none" stroke-width="1" fill="none" fill-rule="evenodd">
        <g id="Internal-file-view---780px-table-(1024)-Copy" transform="translate(-697.000000, -847.000000)" fill="#252525">
            <g id="Group-16" transform="translate(42.000000, 481.000000)">
                <g id="Group-7" transform="translate(652.000000, 363.000000)">
                    <path d="M12.7320036,4.96014603 C13.1944193,4.49689432 14.2286407,3.4618369 14.6896416,3 L14.6896416,8.03798686 L9.66615644,8.03798686 C10.1012085,7.6038351 11.1268125,6.57916362 11.5742441,6.13266448 C10.2138783,4.83512884 7.80601131,4.56840621 6.09911512,6.03420701 C4.32784537,7.55528161 4.12758636,10.1798708 5.62335527,11.9144843 C7.15616631,13.6920564 9.90824863,13.9260134 11.7153065,12.184551 C12.0942809,12.561146 12.4730624,12.9375802 12.8520047,13.3141752 C10.9500907,15.2730672 7.59874258,15.6697588 5.19212957,13.7308992 C2.69738073,11.7210099 2.28056031,8.19454774 4.20662243,5.67905916 C6.14577148,3.14643217 10.0318832,2.53070323 12.7320036,4.96014603" id="Fill-4"></path>
                </g>
            </g>
        </g>
    </g>
</svg>