<?xml version="1.0" encoding="utf-8"?>
<!-- Generator: Adobe Illustrator 21.0.0, SVG Export Plug-In . SVG Version: 6.00 Build 0)  -->
<svg version="1.1" id="Layer_1" xmlns="http://www.w3.org/2000/svg" xmlns:xlink="http://www.w3.org/1999/xlink" x="0px" y="0px"
	 viewBox="0 0 18.1 18.1" style="enable-background:new 0 0 18.1 18.1;" xml:space="preserve">
<style type="text/css">
	.st0{fill:#83B8D4;}
	.st1{fill:#364153;}
</style>
<circle class="st0" cx="8.9" cy="8.9" r="7.9"/>
<g>
	<path class="st1" d="M9.8,4.3c0.3,0,0.5,0.1,0.7,0.3c0.2,0.2,0.3,0.4,0.3,0.7c0,0.3-0.1,0.5-0.3,0.7C10.3,6.1,10,6.2,9.8,6.2
		S9.2,6.1,9.1,5.9C8.9,5.7,8.8,5.5,8.8,5.2c0-0.3,0.1-0.5,0.3-0.7C9.3,4.4,9.5,4.3,9.8,4.3z M10.2,7.3l-1.3,4.6
		c-0.1,0.3-0.1,0.4-0.1,0.5c0,0.1,0,0.1,0.1,0.1c0.1,0.1,0.1,0.1,0.1,0.1c0.1,0,0.1-0.1,0.3-0.1c0.2-0.2,0.4-0.4,0.7-0.9l0.3,0.1
		c-0.6,1.1-1.3,1.7-2.1,1.7c-0.3,0-0.5-0.1-0.7-0.3c-0.2-0.2-0.3-0.4-0.3-0.6c0-0.2,0.1-0.4,0.1-0.6l0.9-3.1
		c0.1-0.3,0.1-0.5,0.1-0.7c0-0.1-0.1-0.2-0.1-0.3C8.1,7.8,7.9,7.7,7.8,7.7c-0.1,0-0.1,0-0.3,0l0.1-0.1l2.2-0.4L10.2,7.3z"/>
</g>
</svg>
