<?xml version="1.0" encoding="UTF-8" standalone="no"?>
<svg width="354px" height="50px" viewBox="0 0 354 50" version="1.1" xmlns="http://www.w3.org/2000/svg" xmlns:xlink="http://www.w3.org/1999/xlink">
    <!-- Generator: Sketch 41 (35326) - http://www.bohemiancoding.com/sketch -->
    <title>Canada-BC Job Grant logo Copy</title>
    <desc>Created with Sketch.</desc>
    <defs></defs>
    <g id="Page-1" stroke="none" stroke-width="1" fill="none" fill-rule="evenodd">
        <g id="Artboard" transform="translate(-49.000000, -41.000000)">
            <g id="Canada-BC-Job-Grant-logo-Copy" transform="translate(49.000000, 41.000000)">
                <g id="BC-Logo" transform="translate(166.000000, 0.000000)">
                    <path d="M181.655661,37.3113907 L179.092712,37.3113907 C179.025266,37.3113907 178.28336,37.3791213 178.28336,37.1759295 C178.28336,37.1081989 178.350806,36.9727377 178.350806,36.9050071 L179.902064,33.1120936 C179.96951,32.9766324 180.104402,32.5025182 180.30674,32.5025182 C180.441632,32.5025182 180.64397,33.044363 180.64397,33.1120936 L182.127783,36.6340847 C182.127783,36.7018153 182.262675,37.0404683 182.262675,37.1081989 C182.330121,37.3791213 181.790553,37.3113907 181.655661,37.3113907 L181.655661,37.3113907 Z M187.388572,42.1879939 L187.321126,42.1202633 C187.186234,42.1202633 187.118788,42.1202633 187.051342,42.0525327 C186.174544,41.8493409 185.90476,40.8333819 185.56753,40.0883453 L181.250984,29.7932942 C181.183538,29.657833 181.116092,29.3869106 180.9812,29.3869106 C180.778862,29.3869106 180.711416,29.657833 180.64397,29.8610248 L176.529763,40.1560759 C176.394871,40.5624595 175.990195,41.5106879 175.720411,41.7816103 C175.518073,41.9848021 175.248289,42.0525327 174.911059,42.0525327 C174.911059,42.0525327 174.708721,42.0525327 174.573829,42.1202633 L174.034261,42.1879939 C173.899369,42.3234551 173.966815,42.5943775 174.101707,42.6621081 L174.911059,42.6621081 C175.450627,42.6621081 176.057641,42.5943775 176.597209,42.5943775 C177.069331,42.5943775 177.541454,42.6621081 178.013576,42.6621081 L178.822928,42.6621081 C178.95782,42.5943775 179.025266,42.3234551 178.890374,42.1879939 L178.350806,42.1202633 L178.081022,42.1202633 C177.6089,42.0525327 176.934439,41.9848021 176.934439,41.4429573 C176.934439,41.1043043 177.136777,40.6301901 177.204223,40.2915371 L177.878684,38.7337333 C178.215914,37.9886967 178.081022,37.9209661 178.95782,37.9209661 L181.857999,37.9209661 C182.869689,37.9209661 182.734797,37.9209661 183.206919,38.9369251 L183.881379,40.4947289 C184.016271,40.7656513 184.151163,41.2397655 184.151163,41.5106879 C184.151163,42.0525327 183.611595,42.0525327 183.072027,42.1202633 L182.734797,42.1202633 L182.195229,42.1879939 C182.060337,42.3234551 182.127783,42.5943775 182.262675,42.6621081 L183.072027,42.6621081 C183.679041,42.6621081 184.286055,42.5943775 184.893069,42.5943775 C185.634976,42.5943775 186.376882,42.6621081 187.118788,42.6621081 L187.456018,42.6621081 C187.456018,42.5943775 187.523464,42.2557245 187.388572,42.1879939 L187.388572,42.1879939 Z M152.249197,42.1202633 L151.911967,42.1202633 C151.709629,42.1202633 151.507291,42.0525327 151.304953,41.9170715 C151.035169,41.6461491 151.035169,40.7656513 151.035169,40.4947289 L151.035169,31.8252122 C151.035169,31.4188286 150.967723,30.673792 151.237507,30.335139 C151.372399,30.1996778 151.642183,30.1319472 151.911967,30.1319472 L152.181751,30.1319472 L152.721319,30.0642166 C152.856211,29.996486 152.788765,29.657833 152.653873,29.5901024 L149.551356,29.5901024 C149.281572,29.5901024 149.079234,29.5901024 148.944342,29.8610248 L144.290567,39.6819617 L140.17636,30.1996778 C140.041468,29.8610248 140.041468,29.5901024 139.569346,29.5901024 L136.399383,29.5901024 C136.264491,29.657833 136.197045,29.996486 136.331937,30.0642166 L136.871505,30.1319472 L137.208735,30.1319472 C138.085533,30.1996778 138.152979,30.4028696 138.085533,31.351098 L137.411073,40.5624595 C137.343627,41.5106879 137.276181,41.9848021 136.331937,42.0525327 C136.331937,42.0525327 136.129599,42.0525327 135.994707,42.1202633 L135.455139,42.1879939 C135.320247,42.3234551 135.387693,42.5943775 135.522585,42.6621081 L136.331937,42.6621081 C136.804059,42.6621081 137.343627,42.5943775 137.815749,42.5943775 C138.355317,42.5943775 138.894885,42.6621081 139.434454,42.6621081 L140.243806,42.6621081 C140.378698,42.5943775 140.446144,42.3234551 140.311252,42.1879939 L139.771684,42.1202633 L139.5019,42.1202633 C138.085533,42.0525327 138.152979,41.0365737 138.220425,39.8174229 L138.894885,31.2833674 L139.029778,31.2833674 L143.481215,41.7816103 C143.548661,41.9170715 143.616107,42.1879939 143.818445,42.1879939 C144.020783,42.1879939 144.088229,41.9848021 144.155675,41.7816103 L149.214126,31.012445 L149.349018,31.012445 L149.349018,40.4269983 C149.349018,40.8333819 149.416464,41.5784185 149.011788,41.8493409 C148.80945,41.9848021 148.13499,42.1202633 148.13499,42.1202633 C148.067544,42.1202633 147.932652,42.1202633 147.865206,42.1879939 L147.325638,42.2557245 C147.190746,42.3911857 147.258192,42.6621081 147.393084,42.7298387 L148.202436,42.7298387 C148.944342,42.7298387 149.686248,42.6621081 150.428154,42.6621081 C150.967723,42.6621081 151.979413,42.7298387 151.979413,42.7298387 C152.249197,42.7298387 152.518981,42.7975693 152.788765,42.7975693 C152.923657,42.7298387 152.991103,42.4589163 152.856211,42.3234551 L152.249197,42.1202633 L152.249197,42.1202633 Z M169.043255,32.6379794 C169.043255,30.5383308 168.975809,30.1996778 167.761781,30.1319472 L167.222213,30.0642166 C167.087321,29.996486 167.154767,29.657833 167.289659,29.5901024 C168.368795,29.657833 169.043255,29.657833 169.920054,29.657833 C170.729406,29.657833 171.471312,29.657833 172.550448,29.5901024 C172.68534,29.657833 172.752786,29.996486 172.617894,30.0642166 L172.078326,30.1319472 C170.864298,30.1996778 170.796852,30.5383308 170.796852,32.6379794 L170.796852,39.6142311 C170.796852,41.7138797 170.864298,41.9848021 172.078326,42.1202633 L172.617894,42.1879939 C172.752786,42.2557245 172.68534,42.5943775 172.550448,42.6621081 C171.471312,42.5943775 170.796852,42.5943775 169.920054,42.5943775 C169.043255,42.5943775 168.301349,42.5943775 167.289659,42.6621081 C167.154767,42.5943775 167.154767,42.3234551 167.222213,42.1879939 L167.761781,42.1202633 C168.975809,41.9848021 169.043255,41.7138797 169.043255,39.6142311 L169.043255,32.6379794 L169.043255,32.6379794 Z M111.646694,32.6379794 C111.646694,30.6060614 111.579248,30.2674084 110.230328,30.1996778 L109.69076,30.1319472 C109.555868,30.0642166 109.623314,29.7255636 109.758206,29.657833 C110.972234,29.7255636 111.71414,29.7255636 112.523493,29.7255636 C113.332845,29.7255636 114.074751,29.7255636 115.153887,29.657833 C115.288779,29.7255636 115.356225,30.0642166 115.221333,30.1319472 L114.681765,30.1996778 C113.400291,30.2674084 113.400291,30.6060614 113.400291,32.6379794 L113.400291,39.4787699 C113.400291,40.6979207 113.467737,41.2397655 113.872413,41.5784185 C114.074751,41.7816103 114.546873,42.0525327 116.233024,42.0525327 C118.054066,42.0525327 118.526188,41.9848021 118.863418,41.7816103 C119.268094,41.5784185 119.875109,40.8333819 120.279785,39.8174229 C120.414677,39.7496923 120.819353,39.8174229 120.819353,39.9528841 C120.819353,40.1560759 120.212339,42.1879939 119.942555,42.6621081 C118.863418,42.5943775 116.840038,42.5943775 114.614319,42.5943775 L112.658385,42.5943775 C111.781586,42.5943775 111.03968,42.5943775 109.893098,42.6621081 C109.758206,42.5943775 109.69076,42.3234551 109.825652,42.1879939 L110.500112,42.1202633 C111.71414,41.9848021 111.781586,41.7138797 111.781586,39.6819617 L111.781586,32.6379794 L111.646694,32.6379794 Z M111.174572,17.3985944 C110.769896,17.3985944 110.02799,17.5340556 110.02799,16.9922108 L110.02799,13.2670278 C110.02799,11.7769546 110.095436,11.5737628 111.849032,11.5737628 C113.872413,11.5737628 115.153887,12.5897218 115.153887,14.5539092 C115.153887,15.3666764 114.884103,16.1794436 114.074751,16.7212884 C113.197953,17.3308638 112.253709,17.3985944 111.174572,17.3985944 L111.174572,17.3985944 Z M119.065756,23.8330014 L118.526188,23.7652708 C118.391296,23.7652708 118.32385,23.7652708 118.256404,23.6975402 C117.447052,23.562079 117.177268,22.8170424 116.772592,22.207467 L114.884103,18.9563982 C114.546873,18.4145534 114.209643,17.6695168 113.467737,17.6017862 C115.356225,17.3985944 117.109822,16.2471742 117.109822,14.3507174 C117.109822,12.1156076 114.951549,11.1673792 112.725831,11.1673792 C111.37691,11.1673792 110.230328,11.2351098 108.881408,11.2351098 C108.139501,11.2351098 107.262703,11.1673792 106.520797,11.1673792 C106.116121,11.1673792 106.116121,11.2351098 106.116121,11.5060322 C106.116121,11.8446852 106.251013,11.7769546 106.723135,11.7769546 C108.274394,11.8446852 108.206948,12.1833382 108.206948,13.4702196 L108.206948,22.0720058 C108.206948,23.2911566 108.34184,23.6975402 107.060365,23.7652708 L106.723135,23.7652708 L106.183567,23.8330014 C106.048675,23.9684626 106.116121,24.239385 106.251013,24.3071156 L107.060365,24.3071156 C107.802271,24.3071156 108.476732,24.239385 109.218638,24.239385 C109.960544,24.239385 110.635004,24.3071156 111.309464,24.3071156 L112.118817,24.3071156 C112.253709,24.239385 112.321155,23.9684626 112.186263,23.8330014 L111.646694,23.7652708 L111.309464,23.7652708 C110.02799,23.6975402 110.095436,23.2911566 110.095436,22.0720058 L110.095436,18.820937 C110.095436,18.6177452 110.095436,18.143631 110.230328,18.0081698 C110.36522,17.8727086 110.567558,17.8727086 110.769896,17.8727086 C112.523493,17.8727086 112.523493,18.0081698 113.332845,19.498243 L115.626009,23.562079 C115.828347,23.900732 115.96324,24.3071156 116.435362,24.3071156 L119.200648,24.3071156 C119.133202,24.239385 119.200648,23.900732 119.065756,23.8330014 L119.065756,23.8330014 Z M158.117,39.3433087 C158.117,40.0883453 158.184446,41.0365737 158.589123,41.5106879 C158.993799,41.9848021 159.735705,42.0525327 160.410165,42.0525327 C162.433546,42.0525327 163.984804,41.2397655 163.984804,39.2755781 C163.984804,37.7177743 163.04056,35.8890481 159.465921,35.8890481 C158.251892,35.8890481 158.117,36.0245093 158.117,36.4308929 L158.117,39.3433087 Z M158.117,34.7376279 C158.117,35.2794727 158.117,35.3472033 159.331029,35.2794727 C161.691639,35.2117421 162.905668,34.6021667 162.905668,32.7734406 C162.905668,30.8092532 161.219517,30.1319472 159.533367,30.1319472 C159.061245,30.1319472 158.656569,30.1996778 158.454231,30.2674084 C158.251892,30.335139 158.117,30.4028696 158.117,30.8092532 L158.117,34.7376279 Z M156.295958,32.0961346 C156.295958,30.6060614 156.228512,30.2674084 155.149376,30.1996778 L154.407469,30.1319472 C154.340023,30.0642166 154.272577,29.657833 154.407469,29.657833 C155.621498,29.5901024 157.172756,29.5223718 159.331029,29.5223718 C160.747395,29.5223718 162.163762,29.5901024 163.175452,30.0642166 C164.187142,30.4706002 164.929048,31.2833674 164.929048,32.5025182 C164.929048,33.9248607 163.984804,34.6698973 162.568438,35.2117421 C162.568438,35.4149339 162.770776,35.4826645 162.973114,35.4826645 C164.187142,35.6858563 166.008185,36.7018153 166.008185,38.8014639 C166.008185,41.1043043 164.05225,42.6621081 159.938043,42.6621081 C159.263583,42.6621081 158.184446,42.5943775 157.172756,42.5943775 C156.161066,42.5943775 155.41916,42.6621081 154.542362,42.6621081 C154.407469,42.5943775 154.340023,42.2557245 154.474916,42.1879939 L154.879592,42.1202633 C156.09362,41.9170715 156.161066,41.7138797 156.161066,39.6819617 L156.161066,32.0961346 L156.295958,32.0961346 Z M132.285176,34.5344361 C132.285176,33.3152854 132.21773,31.0801756 131.8805,30.4706002 C131.745608,30.2674084 131.340932,30.1319472 130.868809,30.0642166 L130.329241,29.996486 C130.194349,29.8610248 130.261795,29.5901024 130.396687,29.5223718 C131.206039,29.5901024 131.947946,29.5901024 132.757298,29.5901024 C133.634096,29.5901024 134.173664,29.5901024 134.91557,29.5223718 C135.050462,29.5901024 135.050462,29.8610248 134.983016,29.996486 L134.510894,30.0642166 C133.971326,30.1319472 133.634096,30.2674084 133.499204,30.5383308 C133.22942,31.2156368 133.22942,33.4507465 133.22942,34.5344361 L133.22942,36.7695459 C133.22942,38.4628109 132.959636,40.2915371 131.813054,41.4429573 C130.936255,42.3911857 129.384997,42.8652999 127.901185,42.8652999 C126.484818,42.8652999 125.068452,42.5943775 124.056762,41.7816103 C122.977625,40.9011125 122.438057,39.4787699 122.438057,37.1759295 L122.438057,32.5702488 C122.438057,30.5383308 122.370611,30.1996778 121.224029,30.1319472 L120.684461,30.0642166 C120.549569,29.996486 120.617015,29.657833 120.751907,29.5901024 C121.763597,29.657833 122.505503,29.657833 123.314855,29.657833 C124.191654,29.657833 124.866114,29.657833 125.877804,29.5901024 C126.012696,29.657833 126.012696,29.996486 125.94525,30.0642166 L125.473128,30.1319472 C124.2591,30.1996778 124.2591,30.5383308 124.2591,32.5702488 L124.2591,36.7695459 C124.2591,39.9528841 125.27079,41.9848021 128.440753,41.9848021 C131.408378,41.9848021 132.55496,39.7496923 132.55496,36.7695459 L132.55496,34.5344361 L132.285176,34.5344361 Z M107.127811,36.6340847 C107.127811,33.383016 105.643999,29.9287554 101.73213,29.9287554 C99.5738573,29.9287554 96.8085705,31.351098 96.8085705,35.6181257 C96.8085705,38.5305415 98.2923829,42.2557245 102.339144,42.2557245 C104.834647,42.2557245 107.127811,40.4947289 107.127811,36.6340847 L107.127811,36.6340847 Z M94.78519,36.2277011 C94.78519,32.2993264 97.8877068,29.31918 102.06936,29.31918 C106.790581,29.31918 109.151192,32.5702488 109.151192,36.0245093 C109.151192,39.9528841 105.981229,42.8652999 102.06936,42.8652999 C97.5504767,42.8652999 94.78519,39.7496923 94.78519,36.2277011 L94.78519,36.2277011 Z M81.9030007,28.5741434 C83.6565971,27.2195314 85.8148697,26.5422254 88.3103723,26.5422254 C89.5918467,26.5422254 91.4128891,26.8131478 92.4920254,27.0840702 C92.7618095,27.1518008 92.9641475,27.2195314 93.1664856,27.1518008 C93.1664856,27.6936456 93.3013776,29.1837188 93.5037157,30.6060614 C93.3688237,30.7415226 93.0315936,30.8092532 92.8967015,30.673792 C92.5594714,29.0482576 91.4803352,27.2195314 88.0405883,27.2195314 C84.3985033,27.2195314 81.3634325,29.5223718 81.3634325,34.3989749 C81.3634325,39.3433087 84.5333954,42.1202633 88.3778184,42.1202633 C91.4128891,42.1202633 92.7618095,40.1560759 93.3013776,38.7337333 C93.4362697,38.5982721 93.8409458,38.6660027 93.9083918,38.8014639 C93.7734998,40.0206147 93.0990396,41.5784185 92.7618095,42.0525327 L91.9524573,42.2557245 C91.4128891,42.4589163 89.7267387,42.7975693 88.2429263,42.7975693 C86.0846538,42.7975693 84.0612732,42.3911857 82.3751228,41.2397655 C80.4866343,39.9528841 79.0028219,37.7855049 79.0028219,34.7376279 C78.9353759,32.2315958 80.0819582,29.996486 81.9030007,28.5741434 L81.9030007,28.5741434 Z M164.322034,17.9404392 C163.310344,17.9404392 163.242898,18.0081698 163.242898,18.5500146 L163.242898,21.3269692 C163.242898,23.3588872 163.37779,23.6298096 164.524372,23.7652708 L165.131386,23.8330014 C165.266278,23.900732 165.198832,24.239385 165.06394,24.3071156 C163.917358,24.239385 163.242898,24.239385 162.433546,24.239385 C161.556747,24.239385 160.814841,24.3071156 160.005489,24.3071156 C159.870597,24.239385 159.870597,23.9684626 159.938043,23.8330014 L160.275273,23.7652708 C161.421855,23.562079 161.489301,23.3588872 161.489301,21.3269692 L161.489301,14.2829868 C161.489301,12.2510688 161.354409,11.9124158 160.275273,11.8446852 L159.735705,11.7769546 C159.600813,11.709224 159.668259,11.370571 159.803151,11.3028404 C160.814841,11.3028404 161.556747,11.370571 162.433546,11.370571 C163.242898,11.370571 163.984804,11.370571 164.861602,11.3028404 C164.996494,11.370571 164.996494,11.709224 164.929048,11.7769546 L164.524372,11.8446852 C163.310344,11.9801464 163.242898,12.2510688 163.242898,14.2829868 L163.242898,16.5180966 C163.242898,17.127672 163.310344,17.127672 164.322034,17.127672 L170.32473,17.127672 C171.33642,17.127672 171.403866,17.127672 171.403866,16.5180966 L171.403866,14.2829868 C171.403866,12.2510688 171.33642,11.9124158 170.122392,11.8446852 L169.717715,11.7769546 C169.582823,11.709224 169.650269,11.370571 169.785161,11.3028404 C170.729406,11.370571 171.471312,11.370571 172.34811,11.370571 C173.157462,11.370571 173.899369,11.370571 174.843613,11.3028404 C174.978505,11.370571 175.045951,11.709224 174.911059,11.7769546 L174.438937,11.8446852 C173.224908,11.9801464 173.157462,12.2510688 173.157462,14.2829868 L173.157462,21.3269692 C173.157462,23.3588872 173.224908,23.6298096 174.438937,23.7652708 L174.911059,23.8330014 C175.045951,23.900732 174.978505,24.239385 174.843613,24.3071156 C173.831923,24.239385 173.090016,24.239385 172.280664,24.239385 C171.403866,24.239385 170.66196,24.239385 169.717715,24.3071156 C169.582823,24.239385 169.515377,23.9684626 169.650269,23.8330014 L170.054946,23.7652708 C171.33642,23.562079 171.33642,23.3588872 171.33642,21.3269692 L171.33642,18.5500146 C171.33642,17.9404392 171.268974,17.9404392 170.257284,17.9404392 L164.322034,17.9404392 L164.322034,17.9404392 Z M152.788765,24.5103074 C150.832831,24.5103074 149.618802,23.9684626 149.214126,23.7652708 C148.944342,23.3588872 148.607112,21.9365446 148.607112,21.0560468 C148.742004,20.9205856 149.079234,20.852855 149.14668,20.9883162 C149.48391,22.0042752 150.428154,23.900732 153.125995,23.900732 C155.08193,23.900732 156.026174,22.8170424 156.026174,21.6656222 C156.026174,20.7851244 155.823836,19.836896 154.137685,18.9563982 L151.979413,17.7372474 C150.832831,17.0599414 149.48391,15.9762518 149.48391,14.3507174 C149.48391,12.5219912 151.170061,10.9641874 154.205131,10.9641874 C154.947038,10.9641874 155.75639,11.0996486 156.363404,11.2351098 C156.633188,11.3028404 156.970418,11.370571 157.172756,11.370571 C157.375094,11.8446852 157.577432,12.9283748 157.577432,13.741142 C157.509986,13.8766032 157.10531,13.9443338 156.970418,13.8088726 C156.700634,12.8606442 156.026174,11.5737628 153.867901,11.5737628 C151.642183,11.5737628 151.102615,12.8606442 151.102615,13.741142 C151.102615,14.8925622 152.181751,15.7053294 153.058549,16.1794436 L154.879592,17.127672 C156.295958,17.8727086 157.77977,19.0241288 157.77977,20.852855 C157.644878,23.0202342 155.75639,24.5103074 152.788765,24.5103074 L152.788765,24.5103074 Z M143.076539,14.2829868 C143.076539,12.1833382 143.009093,11.8446852 141.727618,11.7769546 L141.18805,11.709224 C141.053158,11.6414934 141.120604,11.3028404 141.255496,11.2351098 C142.334632,11.3028404 143.076539,11.3028404 143.953337,11.3028404 C144.830135,11.3028404 145.572041,11.3028404 146.651177,11.2351098 C146.78607,11.3028404 146.853516,11.6414934 146.718624,11.709224 L146.179055,11.7769546 C144.897581,11.8446852 144.830135,12.1833382 144.830135,14.2829868 L144.830135,21.2592386 C144.830135,23.3588872 144.897581,23.6298096 146.179055,23.7652708 L146.718624,23.8330014 C146.853516,23.900732 146.78607,24.239385 146.651177,24.3071156 C145.572041,24.239385 144.830135,24.239385 143.953337,24.239385 C143.076539,24.239385 142.334632,24.239385 141.255496,24.3071156 C141.120604,24.239385 141.053158,23.9684626 141.18805,23.8330014 L141.727618,23.7652708 C143.009093,23.6298096 143.076539,23.3588872 143.076539,21.2592386 L143.076539,14.2829868 Z M134.376002,21.3269692 C134.376002,23.3588872 134.443448,23.6975402 135.590031,23.7652708 L136.264491,23.8330014 C136.399383,23.900732 136.331937,24.239385 136.197045,24.3071156 C135.050462,24.239385 134.376002,24.239385 133.56665,24.239385 C132.757298,24.239385 132.015392,24.239385 130.733917,24.3071156 C130.599025,24.239385 130.599025,23.900732 130.733917,23.8330014 L131.475824,23.7652708 C132.622406,23.6975402 132.757298,23.3588872 132.757298,21.3269692 L132.757298,12.5897218 C132.757298,11.9801464 132.757298,11.9801464 132.150284,11.9801464 L131.003701,11.9801464 C130.126903,11.9801464 129.047767,12.047877 128.508199,12.4542606 C128.036077,12.8606442 127.833739,13.3347584 127.563955,13.8088726 C127.429062,13.9443338 127.091832,13.8088726 127.024386,13.6734114 C127.361616,12.7929136 127.631401,11.5737628 127.766293,10.7609956 C127.833739,10.693265 128.103523,10.693265 128.170969,10.7609956 C128.305861,11.370571 128.980321,11.370571 129.924565,11.370571 L138.152979,11.370571 C139.232116,11.370571 139.434454,11.3028404 139.704238,10.8287262 C139.771684,10.7609956 140.041468,10.8287262 140.041468,10.8964568 C139.83913,11.709224 139.704238,13.2670278 139.704238,13.8766032 C139.636792,14.0120644 139.299562,14.0120644 139.16467,13.9443338 C139.097224,13.4702196 138.962331,12.725183 138.625101,12.5219912 C138.152979,12.1833382 137.411073,12.047877 136.264491,12.047877 L134.848124,12.047877 C134.24111,12.047877 134.24111,12.047877 134.24111,12.725183 L134.24111,21.3269692 L134.376002,21.3269692 Z M122.370611,14.2829868 C122.370611,12.1833382 122.303165,11.8446852 121.021691,11.7769546 L120.549569,11.7769546 C120.414677,11.709224 120.482123,11.370571 120.617015,11.3028404 C121.696151,11.370571 122.438057,11.370571 123.314855,11.370571 C124.191654,11.370571 124.93356,11.370571 126.012696,11.3028404 C126.147588,11.370571 126.215034,11.709224 126.080142,11.7769546 L125.540574,11.8446852 C124.2591,11.9124158 124.191654,12.2510688 124.191654,14.3507174 L124.191654,21.2592386 C124.191654,23.3588872 124.2591,23.6298096 125.540574,23.7652708 L126.080142,23.8330014 C126.215034,23.900732 126.147588,24.239385 126.012696,24.3071156 C124.93356,24.239385 124.191654,24.239385 123.314855,24.239385 C122.438057,24.239385 121.696151,24.239385 120.617015,24.3071156 C120.482123,24.239385 120.414677,23.9684626 120.549569,23.8330014 L121.089137,23.7652708 C122.370611,23.6298096 122.438057,23.3588872 122.438057,21.2592386 L122.438057,14.2829868 L122.370611,14.2829868 Z M95.9992183,20.3787408 C95.9992183,21.191508 96.0666644,22.3429282 96.5387865,22.884773 C97.0109086,23.4266178 97.7528148,23.4943484 98.562167,23.4943484 C100.787886,23.4943484 102.541482,22.54612 102.541482,20.3110102 C102.541482,18.482284 101.529792,16.3826354 97.4830307,16.3826354 C96.1341104,16.3826354 95.9992183,16.5180966 95.9992183,16.9922108 L95.9992183,20.3787408 Z M95.9992183,15.095754 C95.9992183,15.7053294 95.9992183,15.77306 97.3481387,15.7053294 C99.9110874,15.6375988 101.327454,14.8925622 101.327454,12.7929136 C101.327454,10.5578038 99.5064112,9.677306 97.5504767,9.677306 C97.0109086,9.677306 96.6062325,9.7450366 96.4038944,9.8127672 C96.1341104,9.8804978 96.0666644,10.015959 96.0666644,10.4223426 L96.0666644,15.095754 L95.9992183,15.095754 Z M93.9083918,12.047877 C93.9083918,10.354612 93.7734998,9.8804978 92.6269175,9.8127672 L91.8175653,9.7450366 C91.6826732,9.6095754 91.7501192,9.2031918 91.8175653,9.2031918 C93.1664856,9.0677306 94.9200821,9 97.2806927,9 C98.8993971,9 100.383209,9.1354612 101.529792,9.6095754 C102.608928,10.0836896 103.485726,11.031918 103.485726,12.4542606 C103.485726,14.079795 102.40659,14.9602928 100.922778,15.5698682 C100.922778,15.77306 101.125116,15.8407906 101.3949,15.9085212 C102.74382,16.111713 104.767201,17.2631332 104.767201,19.7014348 C104.767201,22.3429282 102.608928,24.1716544 98.0225989,24.1716544 C97.2806927,24.1716544 96.0666644,24.1039238 94.9875281,24.1039238 C93.8409458,24.1039238 93.0315936,24.1716544 92.0873493,24.1716544 C91.9524573,24.1039238 91.8850113,23.7652708 92.0199033,23.6298096 L92.4920254,23.562079 C93.8409458,23.3588872 93.9083918,23.0879648 93.9083918,20.7173938 L93.9083918,12.047877 Z" id="Fill-1" fill="#004B8D"></path>
                    <path d="M10.1843486,41.7897801 C22.2571858,41.7897801 38.8489061,48.6305707 50.9891892,48.6305707 C59.6222795,48.6305707 68.0530317,46.3277303 72.8416989,42.9412003 C73.178929,40.9092823 73.381267,38.8773643 73.381267,36.7777157 C73.381267,16.4585358 56.9918848,0 36.7580795,0 C16.3893823,0 0,16.4585358 0,36.7777157 C0,38.8773643 0.202338053,40.9092823 0.472122123,42.8734697 C1.82104247,42.6025473 6.33992565,41.7897801 10.1843486,41.7897801" id="Fill-3" fill="#FFFFFF"></path>
                    <polygon id="Fill-5" fill="#FCB813" points="61 28.6255344 62.4838124 29.2351098 65.6537752 27"></polygon>
                    <path d="M7.00269556,26.1440115 L3.22571858,24.7893995 L3.42805663,24.3152854 L7.74460175,25.7376279 L8.28416989,25.3989749 L8.48650794,25.2635137 L3.83273274,23.2993264 L4.03507079,22.8252122 L14.4892035,27.0922399 L14.8264336,26.9567787 L4.43974689,21.8092532 L4.64208495,21.335139 L15.6357858,26.4826645 L15.7706778,26.4149339 L5.11420707,20.3869106 L5.31654512,19.9127964 L20.6942371,28.3113907 C20.8291291,28.1081989 21.0989132,27.6340847 21.2338053,27.4308929 C15.3660017,21.9447144 9.76798228,17.7454172 9.76798228,17.7454172 C9.76798228,17.7454172 15.5683398,21.673792 22.7176176,25.2635137 C22.9874017,24.9925913 23.1222937,24.7216689 23.3920778,24.4507465 L10.3075504,12.868814 L10.6447805,12.530161 L21.2338053,21.6060614 L11.4541327,11.7173938 L11.7913628,11.3110102 L22.7850637,22.012445 L12.533269,10.5659736 L12.9379451,10.2273206 L22.3803876,20.3869106 L13.7472973,9.48228398 L14.1519734,9.14363098 L25.2131203,22.689751 C25.4829044,22.4188286 25.7526884,22.2833674 26.0224725,22.012445 C22.7176176,14.7652708 19.0080867,8.80497798 19.0080867,8.80497798 C19.0080867,8.80497798 22.9199557,14.562079 28.1807451,20.5901024 C28.5179751,20.3869106 28.8552052,20.2514494 29.1924353,20.0482576 L29.1249893,19.980527 L21.3686973,4.40248899 L21.7733734,4.26702779 L28.1807451,16.6617276 L22.7850637,3.86064419 L23.2571858,3.65745239 L29.4622194,17.6776866 L24.268876,3.25106879 L24.7409982,3.04787699 L29.7320035,16.0521522 L25.8201344,2.64149339 L26.2922566,2.4383016 L31.4855999,19.0322986 L31.4855999,19.1000292 C31.82283,18.964568 32.1600601,18.8968374 32.5647362,18.7613762 C32.0926141,10.836896 30.9460318,3.99610539 30.9460318,3.99610539 C30.9460318,3.99610539 32.4298442,10.7691654 34.9927928,18.287262 C35.3300229,18.2195314 35.734699,18.2195314 36.0719291,18.1518008 L36.1393751,18.1518008 L36.1393751,18.0840702 L34.7230088,0.812767198 L35.1951309,0.812767198 L36.5440512,14.6975402 L36.3417132,0.745036598 L36.8812813,0.745036598 L37.4208495,16.1198828 L37.9604176,0.745036598 L38.4999857,0.745036598 L38.2976477,14.6975402 L39.646568,0.812767198 L40.1186902,0.812767198 L38.7023238,18.1518008 L38.7023238,18.2195314 C39.0395539,18.2195314 39.44423,18.287262 39.7814601,18.3549926 C42.4118548,10.836896 43.8282211,4.06383599 43.8282211,4.06383599 C43.8282211,4.06383599 42.6816388,10.836896 42.2769627,18.8291068 C42.6141928,18.8968374 42.9514229,19.0322986 43.356099,19.1677598 L48.4819963,2.64149339 L48.9541184,2.70922399 L45.0422494,16.1198828 L50.0332547,3.11560759 L50.5053769,3.31879939 L45.2445875,17.7454172 L51.4496211,3.65745239 L51.9217432,3.86064419 L46.5260618,16.6617276 L52.9334335,4.26702779 L53.4055556,4.47021959 L45.6492636,20.0482576 C45.9864937,20.1837188 46.2562777,20.3869106 46.5935078,20.5223718 C51.8542972,14.562079 55.6987202,8.80497798 55.6987202,8.80497798 C55.6987202,8.80497798 52.1240813,14.6975402 48.7517804,21.9447144 C49.0215645,22.1479062 49.3587946,22.4188286 49.6285786,22.6220204 L60.5548335,9.21136158 L60.9595096,9.55001458 L52.3264193,20.5223718 L61.7688618,10.3627818 L62.1735379,10.7014348 L51.9217432,22.1479062 L62.9154441,11.4464714 L63.2526742,11.852855 L53.4730016,21.673792 L64.0620264,12.5978916 L64.3992565,12.9365446 L51.4496211,24.4507465 C51.6519591,24.7216689 51.9217432,24.9925913 52.1240813,25.2635137 C59.2059131,21.673792 65.0062706,17.8131478 65.0062706,17.8131478 C65.0062706,17.8131478 59.4082512,21.9447144 53.6078937,27.3631623 C53.7427857,27.6340847 54.0125698,28.1081989 54.1474618,28.3791213 L69.2553697,20.1159882 L69.4577078,20.5901024 L57.4523167,27.3631623 L69.9972759,21.4706002 L70.199614,21.9447144 L58.4640069,27.7018153 L58.666345,27.7695459 L70.6042901,22.9606734 L70.8066281,23.4347876 L59.7454813,28.1759295 L59.9478193,28.2436601 L67.2994352,25.8053585 L68.3785715,24.9925913 L68.7158016,25.2635137 L71.1438582,24.4507465 L71.3461963,24.9248607 L69.2553697,25.6698973 L72.2904405,27.9727377 L73.2346848,28.5145825 C69.4577078,12.191508 54.821922,0 37.2859574,0 C19.4802088,0 4.57463893,12.5978916 1,29.4628109 C1.06744602,29.4628109 1.06744602,29.3950803 1.13489204,29.3950803 L1.60701416,29.1918885 L1.87679823,29.0564273 L7.00269556,26.1440115" id="Fill-7" fill="#FCB813"></path>
                    <path d="M0.607014158,43.287262 C0.607014158,43.287262 6.07014158,42.2035724 10.6564708,42.2035724 C22.7293079,42.2035724 39.3210282,49.044363 51.4613114,49.044363 C60.2967397,49.044363 68.9972759,46.6060614 73.6510511,43.0163396 C73.9882812,40.916691 74.1906193,38.7493118 74.1906193,36.514202 C74.1906193,33.5340556 73.8533892,30.6216398 73.178929,27.8446852 L68.1204777,25 L62.1852281,29.1315666 L58.2059131,27.5737628 C56.8569928,28.2510688 48.5611326,33.804978 48.5611326,33.804978 L45.3911698,31.5021376 L41.9514229,30.8248316 L37.3650937,27.5060322 L32.1043043,31.095754 C32.1043043,31.095754 26.2365008,34.482284 26.0341628,34.482284 C25.8318247,34.482284 19.0197769,29.063836 19.0197769,29.063836 L15.8498141,25.7450366 C15.310246,26.0836896 13.1519734,27.0996486 13.1519734,27.0996486 L13.0170814,27.0996486 L10.9262548,26.4223426 L8.43075219,25.0677306 L0.944244245,28.6574524 C0.876798228,28.6574524 0.876798228,28.725183 0.80935221,28.725183 C0.26978407,31.2312152 0,33.8727086 0,36.514202 C0,38.8170424 0.202338053,41.1198828 0.607014158,43.287262" id="Fill-9" fill="#004B8D"></path>
                </g>
                <g id="Canada-logo" transform="translate(0.000000, 7.000000)">
                    <path d="M29.1068182,11.6726588 L28.3909091,0.479476969 C28.3045455,0.204476969 27.8568182,0.202204242 27.8545455,0.479476969 C27.8090909,2.89538606 23.5454545,0.868113333 22.0318182,0.52038606 C8.86590909,-2.47961394 0,8.09084061 0,16.8681133 C0,28.2408406 7.52045455,34.4203861 17.1977273,34.4203861 C24.9,34.4203861 28.7931818,29.4976588 30.05,24.1658406 C30.2068182,23.4976588 29.4522727,23.6408406 29.2886364,24.1658406 C26.9590909,31.5976588 21.1818182,33.479477 18.3159091,33.4385679 C12.0931818,33.3499315 6.30227273,28.329477 6.08863636,16.8681133 C5.82045455,2.27038606 22.3136364,-7.29097758 28.5681818,11.4931133 C28.7068182,11.8953861 29.0159091,11.9908406 29.1068182,11.6726588 L29.1068182,11.6726588 Z" id="Fill-1" fill="#000000"></path>
                    <path d="M37.2667717,33.663435 C40.0894989,34.0179804 42.5963171,31.4725259 42.5963171,28.9657077 L42.5963171,22.8725259 C30.5508626,27.3043441 34.3099535,33.4838895 37.2667717,33.663435 M34.2235899,13.7338895 C37.6258626,12.3043441 46.8485899,12.7543441 46.8485899,16.9588895 L46.8485899,29.9020713 C46.8485899,33.4407077 50.3440444,34.6475259 51.3281353,32.2725259 C51.6417717,31.963435 52.1781353,32.1861622 51.9099535,32.7225259 C51.2849535,35.2338895 45.105408,35.6338895 42.9576808,32.2725259 C31.0872262,40.9202531 23.5190444,23.8997986 37.7144989,23.6338895 C42.1485899,22.9588895 42.6394989,20.4088895 42.6394989,18.6202531 C42.6394989,14.188435 40.3144989,13.7770713 38.9213171,13.7770713 C37.4463171,13.7770713 36.2417717,14.2293441 35.4326808,16.513435 C34.180408,21.0793441 27.3258626,17.0020713 34.2235899,13.7338895" id="Fill-3" fill="#000000"></path>
                    <path d="M58.5066775,13.305197 L52.7316775,14.0688333 C52.3680411,14.155197 52.3680411,14.3370151 53.0407684,14.5142879 C54.2975866,14.5620151 55.102132,15.4097424 55.102132,17.2438333 L55.102132,30.7256515 C55.102132,32.3438333 52.8430411,33.7506515 52.3680411,33.9506515 C51.2953139,34.3983788 52.9089502,34.3142879 52.9089502,34.3142879 L62.3589502,34.3142879 C62.6680411,34.3142879 63.6566775,34.3983788 62.4044048,33.8188333 C60.9680411,33.280197 59.402132,32.1188333 59.402132,30.7256515 L59.402132,20.605197 C59.402132,16.3529242 62.1794048,14.0188333 64.9089502,14.0188333 C67.777132,14.0188333 70.1475866,14.6483788 70.1475866,20.5620151 L70.1475866,30.7256515 C70.1475866,32.205197 68.2248593,33.546106 67.1953139,33.905197 C66.5225866,34.0870151 66.252132,34.3142879 66.8362229,34.3142879 L76.9089502,34.3142879 C77.4498593,34.3529242 77.6725866,34.1733788 77.1816775,34.0347424 C74.7634957,33.0983788 74.4498593,31.3097424 74.4498593,30.7256515 L74.4498593,18.9029242 C74.4498593,12.1438333 67.952132,13.0392879 65.6703139,13.0392879 C62.8044048,13.0824697 59.7589502,14.8733788 59.4475866,15.6779242 C59.3566775,13.4847424 59.0884957,13.2597424 58.5066775,13.305197" id="Fill-5" fill="#000000"></path>
                    <path d="M108.927273,33.2409091 C112.495455,33.2409091 114.884091,31.85 114.884091,23.5227273 C114.884091,15.5977273 112.495455,13.675 108.927273,13.675 C105.356818,13.675 102.463636,18.3 102.463636,23.6113636 C102.463636,28.9295455 105.356818,33.2409091 108.927273,33.2409091 M114.75,32.2113636 C113.765909,33.9136364 111.343182,34.3136364 108.345455,34.3136364 C102.654545,34.3136364 98,29.9272727 98,23.925 C98,18.5931818 101.002273,12.5977273 108.656818,12.5977273 C115.552273,12.5977273 115.511364,17.2068182 115.511364,13.3545455 L115.511364,6.59318182 C115.511364,3.10454545 114.120455,2.07272727 113.05,1.75909091 C111.481818,1.22045455 109.463636,1.13636364 112.688636,1.13636364 L118.688636,1 C118.329545,1.08863636 119.090909,1.08863636 119.090909,1.625 L119.090909,28.0477273 C119.090909,29.8795455 119.765909,32.7045455 122.718182,33.5113636 C122.988636,33.5545455 123.304545,33.7340909 122.988636,33.8272727 L116.45,34.5409091 C115.511364,34.6295455 115.109091,34.1818182 114.706818,32.3454545" id="Fill-7" fill="#000000"></path>
                    <path d="M85.2685412,33.6638462 C88.086723,34.0206644 90.5958139,31.4729371 90.5958139,28.9638462 L90.5958139,22.8729371 C78.5480866,27.307028 82.311723,33.4843007 85.2685412,33.6638462 M82.2208139,13.7343007 C85.6276321,12.3047553 94.8503594,12.7524825 94.8503594,16.9615735 L94.8503594,29.9024825 C94.8503594,33.4433916 98.3412684,34.6456644 99.3253594,32.2774825 C99.6435412,31.9638462 100.179905,32.1888462 99.9071775,32.7252098 C99.2821775,35.2297553 93.1026321,35.6365735 90.9503594,32.2774825 C79.0844503,40.9206644 71.5208139,23.9024825 85.7162684,23.6343007 C90.1480866,22.9615735 90.636723,20.4115735 90.636723,18.6183916 C90.636723,14.1843007 88.311723,13.7774825 86.9230866,13.7774825 C85.4435412,13.7774825 84.2389957,14.2297553 83.4299048,16.5138462 C82.1776321,21.0797553 75.3230866,17.0115735 82.2208139,13.7343007" id="Fill-9" fill="#000000"></path>
                    <path d="M130.267033,33.6643804 C133.087487,34.025744 135.592033,31.4711986 135.592033,28.9621077 L135.592033,22.875744 C123.551124,27.3030168 127.312487,33.4848349 130.267033,33.6643804 M127.221578,13.7325622 C130.626124,12.3052895 139.848851,12.7530168 139.848851,16.9666531 L139.848851,29.9030168 C139.848851,33.4416531 143.344306,34.6530168 144.328396,32.2734713 C144.637487,31.9643804 145.180669,32.1871077 144.910215,32.7234713 C144.282942,35.2302895 138.101124,35.6371077 135.953396,32.2734713 C124.087487,40.9211986 116.519306,23.900744 130.71476,23.6348349 C135.148851,22.9598349 135.642033,20.4052895 135.642033,18.6166531 C135.642033,14.1848349 133.310215,13.7825622 131.921578,13.7825622 C130.446578,13.7825622 129.237487,14.2302895 128.430669,16.5098349 C127.180669,21.0825622 120.326124,17.0075622 127.221578,13.7325622" id="Fill-11" fill="#000000"></path>
                    <polygon id="Fill-13" fill="#E4422B" points="122 11.0318182 126.925 11.0318182 126.925 1 122 1"></polygon>
                    <polygon id="Fill-15" fill="#E4422B" points="138 11.0318182 142.922727 11.0318182 142.922727 1 138 1"></polygon>
                    <path d="M131.275,3.42954545 L131.975,2 L132.681818,3.37727273 C132.765909,3.52045455 132.838636,3.50909091 132.975,3.44090909 L133.572727,3.14090909 L133.186364,5.07045455 C133.102273,5.44772727 133.318182,5.55909091 133.554545,5.30227273 L134.406818,4.38863636 L134.634091,4.90681818 C134.709091,5.06590909 134.825,5.04318182 134.979545,5.01363636 L135.861364,4.82727273 L135.563636,5.94318182 L135.559091,5.96818182 C135.520455,6.11363636 135.456818,6.23636364 135.620455,6.30681818 L135.931818,6.46363636 L134.109091,8.00454545 C133.925,8.19772727 133.986364,8.25681818 134.056818,8.47272727 L134.225,8.99090909 L132.525,8.67727273 C132.315909,8.62954545 132.170455,8.62954545 132.165909,8.79318182 L132.236364,10.75 L131.727273,10.75 L131.788636,8.80227273 C131.788636,8.61136364 131.647727,8.61590909 131.304545,8.68636364 L129.731818,8.99090909 L129.936364,8.47272727 C130.006818,8.275 130.022727,8.13636364 129.865909,8.00454545 L128,6.48636364 L128.345455,6.27272727 C128.445455,6.20227273 128.452273,6.12045455 128.395455,5.95 L128.05,4.81363636 L128.947727,5.00454545 C129.197727,5.06590909 129.268182,5.00454545 129.331818,4.86590909 L129.581818,4.35681818 L130.465909,5.35681818 C130.622727,5.54545455 130.847727,5.41818182 130.775,5.15227273 L130.35,3.06136364 L131.006818,3.44090909 C131.111364,3.50454545 131.222727,3.52045455 131.286364,3.39772727" id="Fill-16" fill="#E4422B"></path>
                </g>
            </g>
        </g>
    </g>
</svg>